<?xml version="1.0" encoding="UTF-8"?>
<!DOCTYPE svg PUBLIC "-//W3C//DTD SVG 1.1//EN" "http://www.w3.org/Graphics/SVG/1.1/DTD/svg11.dtd">
<svg xmlns="http://www.w3.org/2000/svg" version="1.1" width="666px" height="375px" style="shape-rendering:geometricPrecision; text-rendering:geometricPrecision; image-rendering:optimizeQuality; fill-rule:evenodd; clip-rule:evenodd" xmlns:xlink="http://www.w3.org/1999/xlink">
<g><path style="opacity:0.004" fill="#fefffe" d="M 155.5,7.5 C 156.833,8.16667 156.833,8.16667 155.5,7.5 Z"/></g>
<g><path style="opacity:0.004" fill="#fefffe" d="M 431.5,8.5 C 432.833,9.16667 432.833,9.16667 431.5,8.5 Z"/></g>
<g><path style="opacity:0.004" fill="#fefffe" d="M 35.5,11.5 C 36.8333,12.1667 36.8333,12.1667 35.5,11.5 Z"/></g>
<g><path style="opacity:0.004" fill="#fefffe" d="M 242.5,16.5 C 243.833,17.1667 243.833,17.1667 242.5,16.5 Z"/></g>
<g><path style="opacity:0.004" fill="#fefffe" d="M 146.5,20.5 C 147.833,21.1667 147.833,21.1667 146.5,20.5 Z"/></g>
<g><path style="opacity:0.004" fill="#fefffe" d="M 89.5,31.5 C 90.8333,32.1667 90.8333,32.1667 89.5,31.5 Z"/></g>
<g><path style="opacity:0.004" fill="#fefffe" d="M 560.5,31.5 C 561.833,32.1667 561.833,32.1667 560.5,31.5 Z"/></g>
<g><path style="opacity:0.004" fill="#fefffe" d="M 491.5,40.5 C 492.833,41.1667 492.833,41.1667 491.5,40.5 Z"/></g>
<g><path style="opacity:0.004" fill="#fefffe" d="M 23.5,44.5 C 24.8333,45.1667 24.8333,45.1667 23.5,44.5 Z"/></g>
<g><path style="opacity:0.004" fill="#fefffe" d="M 593.5,49.5 C 594.833,50.1667 594.833,50.1667 593.5,49.5 Z"/></g>
<g><path style="opacity:0.004" fill="#fefffe" d="M 635.5,61.5 C 636.833,62.1667 636.833,62.1667 635.5,61.5 Z"/></g>
<g><path style="opacity:0.004" fill="#fefffe" d="M 23.5,62.5 C 24.8333,63.1667 24.8333,63.1667 23.5,62.5 Z"/></g>
<g><path style="opacity:0.004" fill="#fefffe" d="M 566.5,66.5 C 567.833,67.1667 567.833,67.1667 566.5,66.5 Z"/></g>
<g><path style="opacity:0.004" fill="#fefffe" d="M 308.5,68.5 C 309.833,69.1667 309.833,69.1667 308.5,68.5 Z"/></g>
<g><path style="opacity:0.004" fill="#fefffe" d="M 620.5,74.5 C 621.833,75.1667 621.833,75.1667 620.5,74.5 Z"/></g>
<g><path style="opacity:0.004" fill="#fefffe" d="M 617.5,77.5 C 618.833,78.1667 618.833,78.1667 617.5,77.5 Z"/></g>
<g><path style="opacity:0.004" fill="#fefffe" d="M 608.5,82.5 C 609.833,83.1667 609.833,83.1667 608.5,82.5 Z"/></g>
<g><path style="opacity:0.004" fill="#fefffe" d="M 236.5,83.5 C 237.833,84.1667 237.833,84.1667 236.5,83.5 Z"/></g>
<g><path style="opacity:0.357" fill="#3c3c3d" d="M 135.5,84.5 C 135.135,89.0937 134.135,93.427 132.5,97.5C 123.437,95.472 114.437,93.1386 105.5,90.5C 103.209,82.6637 101.542,74.6637 100.5,66.5C 132.133,56.4407 164.133,55.274 196.5,63C 199.167,64.3333 201.833,65.6667 204.5,67C 205.059,67.7247 205.392,68.5581 205.5,69.5C 203.962,76.6563 201.962,83.6563 199.5,90.5C 190.097,92.9681 180.764,95.6348 171.5,98.5C 170.508,94.2172 170.174,89.8839 170.5,85.5C 158.881,83.4364 147.214,83.1031 135.5,84.5 Z M 172.5,85.5 C 179.331,86.5153 185.998,88.0153 192.5,90C 185.914,91.95 179.247,93.45 172.5,94.5C 172.5,91.5 172.5,88.5 172.5,85.5 Z M 123.5,85.5 C 126.5,85.5 129.5,85.5 132.5,85.5C 132.665,88.8499 132.498,92.1832 132,95.5C 125.029,93.7021 118.196,91.5354 111.5,89C 115.793,88.3562 119.793,87.1896 123.5,85.5 Z M 149.5,59.5 C 159.854,60.0025 170.187,60.8358 180.5,62C 188.57,63.3738 196.236,65.8738 203.5,69.5C 201.805,75.6177 199.805,81.6177 197.5,87.5C 167.475,79.6501 137.475,79.6501 107.5,87.5C 105.431,82.0398 104.098,76.3731 103.5,70.5C 103.608,69.5581 103.941,68.7247 104.5,68C 119.261,63.2799 134.261,60.4465 149.5,59.5 Z"/></g>
<g><path style="opacity:0.549" fill="#171717" d="M 132.5,68.5 C 134.827,68.7529 136.827,68.0863 138.5,66.5C 139.216,67.311 140.05,67.9777 141,68.5C 143.886,67.7976 146.719,67.4643 149.5,67.5C 150.917,71.6792 149.75,75.0125 146,77.5C 144.961,76.7562 144.461,75.7562 144.5,74.5C 138.665,74.1236 132.998,74.7903 127.5,76.5C 127.443,71.3183 126.776,71.3183 125.5,76.5C 121.411,77.1321 117.411,78.1321 113.5,79.5C 111.871,76.7341 111.205,73.7341 111.5,70.5C 113.451,70.2267 114.951,70.8934 116,72.5C 116.309,71.2341 116.809,70.0674 117.5,69C 121.14,70.4368 124.973,70.9368 129,70.5C 129.219,69.062 129.719,67.7287 130.5,66.5C 131.522,66.8555 132.189,67.5222 132.5,68.5 Z"/></g>
<g><path style="opacity:0.387" fill="#181718" d="M 165.5,65.5 C 166.859,66.0065 167.859,67.0065 168.5,68.5C 169.524,67.1468 170.857,66.4802 172.5,66.5C 172.065,69.6127 173.065,70.2793 175.5,68.5C 178.208,69.0411 180.874,69.7077 183.5,70.5C 185.999,67.9332 188.166,68.2665 190,71.5C 190.837,69.9926 192.004,69.4926 193.5,70C 193.948,71.763 194.948,73.5964 196.5,75.5C 196.196,77.4405 195.363,79.1072 194,80.5C 191.435,79.6271 188.768,78.2938 186,76.5C 185.439,77.0219 184.772,77.3552 184,77.5C 179.641,76.9082 175.641,75.5748 172,73.5C 171.586,73.9574 171.086,74.2907 170.5,74.5C 169.004,70.6646 168.004,70.6646 167.5,74.5C 166.5,74.5 165.5,74.5 164.5,74.5C 164.264,71.3915 164.597,68.3915 165.5,65.5 Z"/></g>
<g><path style="opacity:0.6" fill="#1d1c1d" d="M 159.5,65.5 C 160.833,65.5 162.167,65.5 163.5,65.5C 162.87,68.5817 161.87,71.5817 160.5,74.5C 159.808,73.9747 159.308,73.3081 159,72.5C 155.752,75.4617 153.585,74.7951 152.5,70.5C 152.608,69.5581 152.941,68.7247 153.5,68C 156.051,67.9977 158.051,67.1644 159.5,65.5 Z"/></g>
<g><path style="opacity:1" fill="#6ba0c8" d="M 205.5,73.5 C 214.702,74.9525 222.869,78.6192 230,84.5C 236.946,91.053 239.946,99.053 239,108.5C 227.906,100.575 218.74,90.9088 211.5,79.5C 209.972,78.1387 208.305,76.972 206.5,76C 205.748,75.3292 205.414,74.4959 205.5,73.5 Z"/></g>
<g><path style="opacity:0.004" fill="#fefffe" d="M 47.5,89.5 C 48.8333,90.1667 48.8333,90.1667 47.5,89.5 Z"/></g>
<g><path style="opacity:0.051" fill="#c1c1c1" d="M 135.5,84.5 C 135.5,89.1667 135.5,93.8333 135.5,98.5C 134.209,98.7373 133.209,98.404 132.5,97.5C 134.135,93.427 135.135,89.0937 135.5,84.5 Z"/></g>
<g><path style="opacity:0.004" fill="#fefffe" d="M 278.5,94.5 C 279.833,95.1667 279.833,95.1667 278.5,94.5 Z"/></g>
<g><path style="opacity:0.004" fill="#fefffe" d="M 158.5,95.5 C 159.833,96.1667 159.833,96.1667 158.5,95.5 Z"/></g>
<g><path style="opacity:1" fill="#73a4c8" d="M 98.5,74.5 C 99.3764,74.3691 100.043,74.7025 100.5,75.5C 98.4235,77.2877 96.2568,78.9544 94,80.5C 87.3576,92.476 78.191,101.643 66.5,108C 66.2319,97.8479 70.2319,89.5145 78.5,83C 84.6209,78.6506 91.2876,75.8173 98.5,74.5 Z"/></g>
<g><path style="opacity:0.93" fill="#0d0c0c" d="M 159.5,125.5 C 156.038,126.482 152.371,126.815 148.5,126.5C 148.737,125.209 148.404,124.209 147.5,123.5C 148.161,118.716 147.161,114.382 144.5,110.5C 145.922,105.866 149.088,103.533 154,103.5C 156.923,103.795 159.257,105.129 161,107.5C 160.185,113.42 159.685,119.42 159.5,125.5 Z"/></g>
<g><path style="opacity:1" fill="#6aa0c8" d="M 67.5,86.5 C 68.5983,87.6009 68.765,88.9343 68,90.5C 62.8243,99.2188 59.491,108.552 58,118.5C 64.2549,113.956 70.7549,109.789 77.5,106C 80.3777,103.291 83.0443,100.458 85.5,97.5C 86.3838,102.533 85.0505,107.033 81.5,111C 70.3897,118.615 60.0564,127.115 50.5,136.5C 50.0533,132.717 49.0533,129.217 47.5,126C 48.7053,118.141 50.2053,110.308 52,102.5C 55.3628,95.3055 60.5295,89.9722 67.5,86.5 Z"/></g>
<g><path style="opacity:0.004" fill="#fefffe" d="M 365.5,118.5 C 366.833,119.167 366.833,119.167 365.5,118.5 Z"/></g>
<g><path style="opacity:0.004" fill="#fefffe" d="M 518.5,119.5 C 519.833,120.167 519.833,120.167 518.5,119.5 Z"/></g>
<g><path style="opacity:1" fill="#6aa0c7" d="M 237.5,86.5 C 245.483,89.2471 250.983,94.5804 254,102.5C 257.753,113.691 258.253,125.024 255.5,136.5C 247.172,127.498 237.839,119.665 227.5,113C 221.515,108.906 219.181,103.406 220.5,96.5C 222.288,98.5765 223.954,100.743 225.5,103C 233.087,108.043 240.587,113.21 248,118.5C 247.783,115.153 247.116,111.82 246,108.5C 243.761,100.822 240.928,93.4892 237.5,86.5 Z"/></g>
<g><path style="opacity:0.704" fill="#b56167" d="M 147.5,123.5 C 148.404,124.209 148.737,125.209 148.5,126.5C 152.371,126.815 156.038,126.482 159.5,125.5C 162.495,125.294 165.162,125.96 167.5,127.5C 156.821,127.516 146.154,127.85 135.5,128.5C 138.641,127.679 141.975,127.179 145.5,127C 146.973,126.29 147.64,125.124 147.5,123.5 Z"/></g>
<g><path style="opacity:0.004" fill="#fefffe" d="M 359.5,127.5 C 360.833,128.167 360.833,128.167 359.5,127.5 Z"/></g>
<g><path style="opacity:1" fill="#cd4851" d="M 167.5,127.5 C 183.59,129.982 190.09,139.316 187,155.5C 185.212,160.92 181.712,164.753 176.5,167C 170.97,168.873 165.303,170.039 159.5,170.5C 159.5,166.833 159.5,163.167 159.5,159.5C 164.448,158.906 169.114,157.406 173.5,155C 178.225,151.077 178.725,146.577 175,141.5C 170.964,136.762 165.798,134.429 159.5,134.5C 155.235,134.566 151.235,135.566 147.5,137.5C 144.334,139.834 141.667,142.667 139.5,146C 137.593,147.122 135.593,147.955 133.5,148.5C 131.167,148.5 128.833,148.5 126.5,148.5C 126.167,148.5 125.833,148.5 125.5,148.5C 124.699,146.958 124.366,145.292 124.5,143.5C 125.013,136.125 128.68,131.125 135.5,128.5C 146.154,127.85 156.821,127.516 167.5,127.5 Z M 134.5,139.5 C 137.001,139.511 137.168,140.178 135,141.5C 134.536,140.906 134.369,140.239 134.5,139.5 Z"/></g>
<g><path style="opacity:0.989" fill="#0a0505" d="M 159.5,134.5 C 159.5,142.833 159.5,151.167 159.5,159.5C 159.5,163.167 159.5,166.833 159.5,170.5C 159.5,177.167 159.5,183.833 159.5,190.5C 155.765,189.699 152.099,188.699 148.5,187.5C 148.737,186.209 148.404,185.209 147.5,184.5C 147.5,182.833 147.5,181.167 147.5,179.5C 148.833,172.5 148.833,165.5 147.5,158.5C 147.5,151.5 147.5,144.5 147.5,137.5C 151.235,135.566 155.235,134.566 159.5,134.5 Z"/></g>
<g><path style="opacity:0.004" fill="#fefffe" d="M 644.5,138.5 C 645.833,139.167 645.833,139.167 644.5,138.5 Z"/></g>
<g><path style="opacity:0.004" fill="#fefffe" d="M 366.5,144.5 C 365.833,143.167 365.833,143.167 366.5,144.5 Z"/></g>
<g><path style="opacity:1" fill="#6aa0c7" d="M 260.5,105.5 C 262.078,106.066 263.412,107.066 264.5,108.5C 274.988,128.689 273.488,148.023 260,166.5C 254.481,157.307 247.814,148.974 240,141.5C 236.331,137.329 234.164,132.496 233.5,127C 233.833,125.5 234.167,124 234.5,122.5C 238.702,127.868 243.702,132.368 249.5,136C 255.165,140.173 258.665,145.673 260,152.5C 261.799,136.848 261.965,121.181 260.5,105.5 Z"/></g>
<g><path style="opacity:0.004" fill="#fefffe" d="M 239.5,125.5 C 240.833,126.167 240.833,126.167 239.5,125.5 Z"/></g>
<g><path style="opacity:1" fill="#599bca" d="M 429.5,144.5 C 429.278,164.946 429.278,185.612 429.5,206.5C 432.807,205.949 436.14,205.616 439.5,205.5C 439.833,205.5 440.167,205.5 440.5,205.5C 451.008,206.167 461.674,206.833 472.5,207.5C 473.415,208.328 474.081,209.328 474.5,210.5C 473.179,212.332 472.179,214.332 471.5,216.5C 469.167,216.5 466.833,216.5 464.5,216.5C 464.5,215.5 464.5,214.5 464.5,213.5C 453.5,213.5 442.5,213.5 431.5,213.5C 431.719,214.675 431.386,215.675 430.5,216.5C 429.319,214.865 429.319,213.198 430.5,211.5C 430.081,210.328 429.415,209.328 428.5,208.5C 427.692,210.423 427.192,212.423 427,214.5C 426.5,191.169 426.333,167.836 426.5,144.5C 427.5,144.5 428.5,144.5 429.5,144.5 Z"/></g>
<g><path style="opacity:1" fill="#609dc9" d="M 515.5,164.5 C 516.165,169.157 516.831,173.823 517.5,178.5C 516.572,182.282 515.238,185.949 513.5,189.5C 514.537,192.789 516.204,195.622 518.5,198C 517.324,199.914 516.324,199.748 515.5,197.5C 513.606,192.86 511.272,188.527 508.5,184.5C 506.557,181.116 505.057,177.449 504,173.5C 503.667,188.5 503.333,203.5 503,218.5C 498.263,219.469 493.43,219.803 488.5,219.5C 488.5,193.833 488.5,168.167 488.5,142.5C 495.175,142.334 501.842,142.5 508.5,143C 510.982,150.127 513.315,157.294 515.5,164.5 Z"/></g>
<g><path style="opacity:1" fill="#5e9bc8" d="M 565.5,143.5 C 565.5,168.5 565.5,193.5 565.5,218.5C 560.833,218.5 556.167,218.5 551.5,218.5C 551.833,202.153 551.499,185.82 550.5,169.5C 549.614,170.325 549.281,171.325 549.5,172.5C 548.976,174.306 548.309,175.972 547.5,177.5C 546.883,177.389 546.383,177.056 546,176.5C 545.798,178.256 545.298,179.922 544.5,181.5C 543.833,181.167 543.167,180.833 542.5,180.5C 539.913,186.26 538.079,192.26 537,198.5C 537.456,195.572 537.456,192.572 537,189.5C 536.5,188.333 535.667,187.5 534.5,187C 535.91,186.632 536.91,185.799 537.5,184.5C 536.574,180.906 536.241,177.24 536.5,173.5C 538.143,173.48 539.476,174.147 540.5,175.5C 540.833,174.833 541.167,174.167 541.5,173.5C 540.578,167.855 540.578,162.188 541.5,156.5C 543.03,151.942 544.697,147.442 546.5,143C 553.014,142.18 559.347,142.347 565.5,143.5 Z"/></g>
<g><path style="opacity:1" fill="#5a9ac9" d="M 625.5,181.5 C 625.833,182.167 626.167,182.833 626.5,183.5C 624.085,184.982 623.418,186.982 624.5,189.5C 626.952,186.716 628.952,187.049 630.5,190.5C 629.311,191.429 627.978,191.762 626.5,191.5C 626.307,195.449 625.807,195.449 625,191.5C 624.51,192.793 624.343,194.127 624.5,195.5C 622.876,195.64 621.71,194.973 621,193.5C 620.667,194.5 620.333,195.5 620,196.5C 619.09,188.648 614.923,185.648 607.5,187.5C 604.833,187.5 602.167,187.5 599.5,187.5C 598.414,187.62 597.747,188.287 597.5,189.5C 598.447,198.799 598.781,208.132 598.5,217.5C 594.167,217.5 589.833,217.5 585.5,217.5C 585.5,193.167 585.5,168.833 585.5,144.5C 586.833,144.5 588.167,144.5 589.5,144.5C 588.953,165.148 589.287,185.814 590.5,206.5C 591.167,200.167 591.833,193.833 592.5,187.5C 593.543,184.579 595.21,182.079 597.5,180C 605.416,181.036 613.416,181.536 621.5,181.5C 621.579,180.07 621.246,178.736 620.5,177.5C 623.869,171.307 625.536,164.641 625.5,157.5C 621.612,155.977 617.445,154.977 613,154.5C 608.492,153.949 603.992,153.782 599.5,154C 598.354,161.086 598.188,168.253 599,175.5C 604.417,176.309 609.917,176.809 615.5,177C 614.102,179.562 612.435,179.895 610.5,178C 604.436,176.958 598.602,177.458 593,179.5C 591.5,179.333 590.667,178.5 590.5,177C 593.957,173.797 594.29,170.297 591.5,166.5C 592.896,165.148 593.563,163.481 593.5,161.5C 592.799,157.552 592.799,153.552 593.5,149.5C 596.119,149.232 598.619,149.565 601,150.5C 607.012,148.169 613.178,146.669 619.5,146C 620.036,150.316 622.37,152.982 626.5,154C 628.342,155.911 630.009,157.911 631.5,160C 628.399,166.209 627.399,172.709 628.5,179.5C 627.07,179.579 625.736,179.246 624.5,178.5C 624.167,178.833 623.833,179.167 623.5,179.5C 624.243,180.182 624.909,180.849 625.5,181.5 Z M 600.5,156.5 C 606.509,156.334 612.509,156.501 618.5,157C 622.367,160.66 623.534,165.16 622,170.5C 620.926,171.618 619.76,172.618 618.5,173.5C 612.537,174.496 606.537,174.829 600.5,174.5C 600.5,168.5 600.5,162.5 600.5,156.5 Z"/></g>
<g><path style="opacity:1" fill="#6ea3c9" d="M 625.5,181.5 C 624.909,180.849 624.243,180.182 623.5,179.5C 623.833,179.167 624.167,178.833 624.5,178.5C 625.736,179.246 627.07,179.579 628.5,179.5C 627.399,172.709 628.399,166.209 631.5,160C 630.009,157.911 628.342,155.911 626.5,154C 622.37,152.982 620.036,150.316 619.5,146C 613.178,146.669 607.012,148.169 601,150.5C 598.619,149.565 596.119,149.232 593.5,149.5C 592.799,153.552 592.799,157.552 593.5,161.5C 593.563,163.481 592.896,165.148 591.5,166.5C 594.29,170.297 593.957,173.797 590.5,177C 590.667,178.5 591.5,179.333 593,179.5C 598.602,177.458 604.436,176.958 610.5,178C 612.435,179.895 614.102,179.562 615.5,177C 609.917,176.809 604.417,176.309 599,175.5C 598.188,168.253 598.354,161.086 599.5,154C 603.992,153.782 608.492,153.949 613,154.5C 617.445,154.977 621.612,155.977 625.5,157.5C 625.536,164.641 623.869,171.307 620.5,177.5C 621.246,178.736 621.579,180.07 621.5,181.5C 613.416,181.536 605.416,181.036 597.5,180C 595.21,182.079 593.543,184.579 592.5,187.5C 591.833,193.833 591.167,200.167 590.5,206.5C 589.287,185.814 588.953,165.148 589.5,144.5C 588.167,144.5 586.833,144.5 585.5,144.5C 585.5,168.833 585.5,193.167 585.5,217.5C 589.833,217.5 594.167,217.5 598.5,217.5C 598.781,208.132 598.447,198.799 597.5,189.5C 597.747,188.287 598.414,187.62 599.5,187.5C 599.5,197.833 599.5,208.167 599.5,218.5C 594.5,218.5 589.5,218.5 584.5,218.5C 583.169,193.431 583.169,168.264 584.5,143C 596.167,142.333 607.833,142.333 619.5,143C 635.475,145.61 641.642,154.777 638,170.5C 635.755,176.369 631.588,180.036 625.5,181.5 Z M 600.5,156.5 C 600.5,162.5 600.5,168.5 600.5,174.5C 606.537,174.829 612.537,174.496 618.5,173.5C 619.76,172.618 620.926,171.618 622,170.5C 623.534,165.16 622.367,160.66 618.5,157C 612.509,156.501 606.509,156.334 600.5,156.5 Z"/></g>
<g><path style="opacity:0.071" fill="#c6e3fe" d="M 424.5,143.5 C 424.5,168.5 424.5,193.5 424.5,218.5C 423.733,217.828 423.066,216.995 422.5,216C 423.162,191.736 423.829,167.569 424.5,143.5 Z"/></g>
<g><path style="opacity:0.004" fill="#fefffe" d="M 356.5,146.5 C 357.833,147.167 357.833,147.167 356.5,146.5 Z"/></g>
<g><path style="opacity:1" fill="#5f9cc9" d="M 330.5,143.5 C 335.894,144.114 340.394,146.447 344,150.5C 344.667,151.5 344.667,152.5 344,153.5C 341.971,156.029 340.138,158.696 338.5,161.5C 337.277,162.614 335.944,162.781 334.5,162C 327.348,156.503 319.348,155.003 310.5,157.5C 308.856,157.286 307.356,157.62 306,158.5C 305.502,161.482 305.335,164.482 305.5,167.5C 305.657,168.873 305.49,170.207 305,171.5C 303.782,167.735 302.616,163.901 301.5,160C 302.601,157.729 304.267,155.896 306.5,154.5C 303.802,153.331 301.135,152.164 298.5,151C 302.667,146.549 307.667,145.382 313.5,147.5C 314.308,147.192 314.975,146.692 315.5,146C 314.167,145.667 312.833,145.333 311.5,145C 314.022,144.501 316.522,144.668 319,145.5C 322.665,143.952 326.499,143.285 330.5,143.5 Z"/></g>
<g><path style="opacity:1" fill="#6ca1c9" d="M 43.5,105.5 C 44.6491,105.791 45.3158,106.624 45.5,108C 44.0458,122.859 44.2125,137.692 46,152.5C 46.8221,150.212 47.4888,147.878 48,145.5C 53.332,139.67 59.1653,134.337 65.5,129.5C 67.5,127.167 69.5,124.833 71.5,122.5C 73.2914,128.218 72.2914,133.384 68.5,138C 63.0357,145.132 57.2023,151.966 51,158.5C 49.4055,161.121 47.9055,163.787 46.5,166.5C 31.723,146.846 30.723,126.513 43.5,105.5 Z"/></g>
<g><path style="opacity:0.047" fill="#afa0a2" d="M 124.5,143.5 C 124.366,145.292 124.699,146.958 125.5,148.5C 123.16,149.086 120.993,150.086 119,151.5C 118.833,151 118.667,150.5 118.5,150C 120.84,148.03 122.84,145.864 124.5,143.5 Z"/></g>
<g><path style="opacity:1" fill="#649ec7" d="M 405.5,180.5 C 403.421,180.029 401.421,179.363 399.5,178.5C 395.871,177.9 392.204,177.233 388.5,176.5C 388.291,175.914 387.957,175.414 387.5,175C 383.911,174.793 380.411,174.293 377,173.5C 374.679,174.361 373.513,173.361 373.5,170.5C 372.178,170.67 371.011,170.337 370,169.5C 369.173,165.459 369.34,161.459 370.5,157.5C 372.332,156.752 373.999,155.752 375.5,154.5C 374.833,153.833 374.167,153.167 373.5,152.5C 374.908,151.757 376.241,150.923 377.5,150C 381.211,149.825 384.878,149.325 388.5,148.5C 386.854,147.34 385.021,146.673 383,146.5C 380.522,147.332 378.022,147.499 375.5,147C 379.614,145.226 379.447,144.393 375,144.5C 372.183,145.031 369.35,145.364 366.5,145.5C 366.5,145.167 366.5,144.833 366.5,144.5C 379.549,140.005 392.216,140.839 404.5,147C 406.019,148.351 407.352,149.851 408.5,151.5C 406.755,155.408 404.422,158.908 401.5,162C 400.5,162.667 399.5,162.667 398.5,162C 391.738,156.733 384.072,155.067 375.5,157C 370.167,161.333 370.167,165.667 375.5,170C 382.613,171.486 389.613,173.153 396.5,175C 400.181,175.872 403.181,177.706 405.5,180.5 Z"/></g>
<g><path style="opacity:1" fill="#629dc7" d="M 330.5,143.5 C 326.499,143.285 322.665,143.952 319,145.5C 316.522,144.668 314.022,144.501 311.5,145C 312.833,145.333 314.167,145.667 315.5,146C 314.975,146.692 314.308,147.192 313.5,147.5C 307.667,145.382 302.667,146.549 298.5,151C 301.135,152.164 303.802,153.331 306.5,154.5C 304.267,155.896 302.601,157.729 301.5,160C 302.616,163.901 303.782,167.735 305,171.5C 305.49,170.207 305.657,168.873 305.5,167.5C 307.759,168.344 308.759,170.011 308.5,172.5C 311.491,172.33 313.491,173.663 314.5,176.5C 315.086,176.291 315.586,175.957 316,175.5C 323.419,176.562 330.586,178.228 337.5,180.5C 335.016,182.028 335.182,183.694 338,185.5C 338.49,186.793 338.657,188.127 338.5,189.5C 335.886,189.723 334.219,188.556 333.5,186C 331.711,185.086 329.877,184.253 328,183.5C 326.338,183.388 325.171,184.054 324.5,185.5C 329.006,186.842 332.006,189.675 333.5,194C 332.721,197.842 331.887,201.675 331,205.5C 329.491,206.09 327.991,206.756 326.5,207.5C 326.709,208.086 327.043,208.586 327.5,209C 323.234,209.097 319.068,209.263 315,209.5C 310.679,207.993 306.179,206.993 301.5,206.5C 303.078,205.702 304.744,205.202 306.5,205C 305.315,203.647 303.981,202.48 302.5,201.5C 301.996,204.342 300.329,205.675 297.5,205.5C 297.866,203.095 298.533,200.762 299.5,198.5C 299.167,197.833 298.833,197.167 298.5,196.5C 297.583,197.127 296.583,197.461 295.5,197.5C 296.145,196.188 297.145,195.188 298.5,194.5C 301.317,196.817 303.984,199.317 306.5,202C 312.49,205.755 318.823,206.755 325.5,205C 330.45,202.16 331.784,197.993 329.5,192.5C 328.354,191.855 327.354,191.022 326.5,190C 319.15,187.998 311.817,185.998 304.5,184C 292.253,177.612 288.42,167.778 293,154.5C 298.972,145.544 307.472,141.21 318.5,141.5C 322.713,141.718 326.713,142.384 330.5,143.5 Z"/></g>
<g><path style="opacity:1" fill="#599bca" d="M 399.5,178.5 C 400.588,180 401.921,181.333 403.5,182.5C 401.602,183.734 399.935,183.401 398.5,181.5C 392.389,182.734 392.555,184.401 399,186.5C 399.483,187.448 399.649,188.448 399.5,189.5C 397.833,189.5 396.167,189.5 394.5,189.5C 391.75,188.256 389.417,186.423 387.5,184C 388.833,183.667 390.167,183.333 391.5,183C 387.09,182.186 382.757,180.52 378.5,178C 368.131,177.33 368.131,178.33 378.5,181C 379.328,181.915 380.328,182.581 381.5,183C 377.545,185.19 374.211,184.356 371.5,180.5C 369.584,181.248 367.584,181.248 365.5,180.5C 365.5,179.5 365.5,178.5 365.5,177.5C 364.325,177.719 363.325,177.386 362.5,176.5C 363.067,171.68 364.067,167.013 365.5,162.5C 365.167,161.5 364.833,160.5 364.5,159.5C 363.136,163.194 361.469,166.86 359.5,170.5C 358.914,170.291 358.414,169.957 358,169.5C 357.037,160.136 359.87,152.136 366.5,145.5C 369.35,145.364 372.183,145.031 375,144.5C 379.447,144.393 379.614,145.226 375.5,147C 378.022,147.499 380.522,147.332 383,146.5C 385.021,146.673 386.854,147.34 388.5,148.5C 384.878,149.325 381.211,149.825 377.5,150C 376.241,150.923 374.908,151.757 373.5,152.5C 374.167,153.167 374.833,153.833 375.5,154.5C 373.999,155.752 372.332,156.752 370.5,157.5C 369.34,161.459 369.173,165.459 370,169.5C 371.011,170.337 372.178,170.67 373.5,170.5C 373.513,173.361 374.679,174.361 377,173.5C 380.411,174.293 383.911,174.793 387.5,175C 387.957,175.414 388.291,175.914 388.5,176.5C 392.204,177.233 395.871,177.9 399.5,178.5 Z"/></g>
<g><path style="opacity:0.02" fill="#ac8191" d="M 126.5,148.5 C 128.833,148.5 131.167,148.5 133.5,148.5C 129.138,149.205 126.804,151.872 126.5,156.5C 125.386,153.844 125.386,151.177 126.5,148.5 Z"/></g>
<g><path style="opacity:0.004" fill="#fefffe" d="M 569.5,156.5 C 570.833,157.167 570.833,157.167 569.5,156.5 Z"/></g>
<g><path style="opacity:1" fill="#5c9ac8" d="M 429.5,144.5 C 444.167,144.5 458.833,144.5 473.5,144.5C 473.5,147.833 473.5,151.167 473.5,154.5C 462.345,155.049 451.345,155.716 440.5,156.5C 439.512,161.64 439.179,166.974 439.5,172.5C 449.833,172.5 460.167,172.5 470.5,172.5C 470.5,177.167 470.5,181.833 470.5,186.5C 460.167,186.5 449.833,186.5 439.5,186.5C 439.5,192.833 439.5,199.167 439.5,205.5C 436.14,205.616 432.807,205.949 429.5,206.5C 429.278,185.612 429.278,164.946 429.5,144.5 Z"/></g>
<g><path style="opacity:1" fill="#b7565d" d="M 147.5,158.5 C 148.833,165.5 148.833,172.5 147.5,179.5C 147.799,177.396 147.466,175.396 146.5,173.5C 145.817,173.863 145.15,174.196 144.5,174.5C 145.059,171.484 145.725,168.484 146.5,165.5C 146,165.167 145.5,164.833 145,164.5C 141.83,166.17 138.663,167.836 135.5,169.5C 138.094,164.934 142.094,162.267 147.5,161.5C 147.5,160.5 147.5,159.5 147.5,158.5 Z"/></g>
<g><path style="opacity:0.004" fill="#fefffe" d="M 341.5,170.5 C 342.833,171.167 342.833,171.167 341.5,170.5 Z"/></g>
<g><path style="opacity:0.004" fill="#fefffe" d="M 650.5,174.5 C 651.833,175.167 651.833,175.167 650.5,174.5 Z"/></g>
<g><path style="opacity:1" fill="#6a9fc5" d="M 366.5,145.5 C 359.87,152.136 357.037,160.136 358,169.5C 358.414,169.957 358.914,170.291 359.5,170.5C 361.469,166.86 363.136,163.194 364.5,159.5C 364.833,160.5 365.167,161.5 365.5,162.5C 364.067,167.013 363.067,171.68 362.5,176.5C 363.325,177.386 364.325,177.719 365.5,177.5C 365.5,178.5 365.5,179.5 365.5,180.5C 367.584,181.248 369.584,181.248 371.5,180.5C 374.211,184.356 377.545,185.19 381.5,183C 380.328,182.581 379.328,181.915 378.5,181C 368.131,178.33 368.131,177.33 378.5,178C 382.757,180.52 387.09,182.186 391.5,183C 390.167,183.333 388.833,183.667 387.5,184C 389.417,186.423 391.75,188.256 394.5,189.5C 396.023,192.63 396.689,195.963 396.5,199.5C 397.5,199.5 398.5,199.5 399.5,199.5C 399.5,200.5 399.5,201.5 399.5,202.5C 398.022,202.238 396.689,202.571 395.5,203.5C 394.926,205.059 394.26,206.559 393.5,208C 389.321,210.116 385.321,210.283 381.5,208.5C 380.558,208.608 379.725,208.941 379,209.5C 377.883,207.876 376.383,206.876 374.5,206.5C 371.868,207.44 369.202,207.607 366.5,207C 372.323,206.099 372.656,204.933 367.5,203.5C 367.5,202.5 367.5,201.5 367.5,200.5C 365.088,200.756 363.421,199.756 362.5,197.5C 361.472,199.361 359.972,200.695 358,201.5C 357.578,203.355 357.078,205.189 356.5,207C 359.069,209.067 361.069,211.567 362.5,214.5C 358.547,212.343 355.214,209.343 352.5,205.5C 355.618,202.093 358.618,198.593 361.5,195C 364.945,196.407 367.945,198.741 370.5,202C 374.696,204.288 379.196,205.788 384,206.5C 390.261,206.237 394.094,203.071 395.5,197C 394.808,193.941 393.141,191.608 390.5,190C 383.167,188 375.833,186 368.5,184C 355.416,176.329 352.249,165.496 359,151.5C 361.106,148.882 363.606,146.882 366.5,145.5 Z"/></g>
<g><path style="opacity:1" fill="#689ec7" d="M 276.5,141.5 C 283.178,160.352 280.011,177.352 267,192.5C 262.652,197.015 258.152,201.349 253.5,205.5C 252.229,199.519 251.062,193.519 250,187.5C 246.729,179.955 243.729,172.288 241,164.5C 240.049,158.627 240.715,152.96 243,147.5C 245.708,155.25 249.708,162.25 255,168.5C 257.24,172.976 258.906,177.643 260,182.5C 263.041,173.713 267.041,165.38 272,157.5C 273.82,152.233 275.32,146.9 276.5,141.5 Z"/></g>
<g><path style="opacity:1" fill="#68a0c9" d="M 29.5,141.5 C 30.8865,146.737 32.3865,152.071 34,157.5C 38.7154,165.655 43.0487,173.989 47,182.5C 47.7032,175.047 50.7032,168.713 56,163.5C 58.5156,158.469 61.0156,153.469 63.5,148.5C 65.4654,154.343 65.9654,160.343 65,166.5C 58.5294,179.039 54.5294,192.373 53,206.5C 40.8607,197.368 32.194,185.701 27,171.5C 25.8956,161.289 26.7289,151.289 29.5,141.5 Z"/></g>
<g><path style="opacity:1" fill="#619dc9" d="M 399.5,178.5 C 401.421,179.363 403.421,180.029 405.5,180.5C 410.109,184.567 412.109,189.733 411.5,196C 411.68,207.969 406.013,215.636 394.5,219C 383.051,221.888 372.385,220.388 362.5,214.5C 361.069,211.567 359.069,209.067 356.5,207C 357.078,205.189 357.578,203.355 358,201.5C 359.972,200.695 361.472,199.361 362.5,197.5C 363.421,199.756 365.088,200.756 367.5,200.5C 367.5,201.5 367.5,202.5 367.5,203.5C 372.656,204.933 372.323,206.099 366.5,207C 369.202,207.607 371.868,207.44 374.5,206.5C 376.383,206.876 377.883,207.876 379,209.5C 379.725,208.941 380.558,208.608 381.5,208.5C 385.321,210.283 389.321,210.116 393.5,208C 394.26,206.559 394.926,205.059 395.5,203.5C 396.689,202.571 398.022,202.238 399.5,202.5C 399.5,201.5 399.5,200.5 399.5,199.5C 398.5,199.5 397.5,199.5 396.5,199.5C 396.689,195.963 396.023,192.63 394.5,189.5C 396.167,189.5 397.833,189.5 399.5,189.5C 399.649,188.448 399.483,187.448 399,186.5C 392.555,184.401 392.389,182.734 398.5,181.5C 399.935,183.401 401.602,183.734 403.5,182.5C 401.921,181.333 400.588,180 399.5,178.5 Z"/></g>
<g><path style="opacity:0.145" fill="#c7e0f1" d="M 599.5,187.5 C 602.167,187.5 604.833,187.5 607.5,187.5C 608.791,187.263 609.791,187.596 610.5,188.5C 607.167,188.5 603.833,188.5 600.5,188.5C 600.5,198.833 600.5,209.167 600.5,219.5C 594.974,219.821 589.64,219.488 584.5,218.5C 589.5,218.5 594.5,218.5 599.5,218.5C 599.5,208.167 599.5,197.833 599.5,187.5 Z"/></g>
<g><path style="opacity:1" fill="#659dc8" d="M 626.5,183.5 C 629.904,185.577 632.404,188.577 634,192.5C 637.43,201.283 639.93,210.283 641.5,219.5C 636.125,219.828 630.792,219.495 625.5,218.5C 623.466,210.701 620.966,203.034 618,195.5C 616.882,191.544 614.382,189.211 610.5,188.5C 609.791,187.596 608.791,187.263 607.5,187.5C 614.923,185.648 619.09,188.648 620,196.5C 620.333,195.5 620.667,194.5 621,193.5C 621.71,194.973 622.876,195.64 624.5,195.5C 624.343,194.127 624.51,192.793 625,191.5C 625.807,195.449 626.307,195.449 626.5,191.5C 627.978,191.762 629.311,191.429 630.5,190.5C 628.952,187.049 626.952,186.716 624.5,189.5C 623.418,186.982 624.085,184.982 626.5,183.5 Z"/></g>
<g><path style="opacity:0.169" fill="#b4cde1" d="M 565.5,143.5 C 566.498,168.661 566.831,193.995 566.5,219.5C 561.167,219.5 555.833,219.5 550.5,219.5C 550.83,203.658 550.496,187.991 549.5,172.5C 549.281,171.325 549.614,170.325 550.5,169.5C 551.499,185.82 551.833,202.153 551.5,218.5C 556.167,218.5 560.833,218.5 565.5,218.5C 565.5,193.5 565.5,168.5 565.5,143.5 Z"/></g>
<g><path style="opacity:0.004" fill="#fefffe" d="M 134.5,197.5 C 135.833,198.167 135.833,198.167 134.5,197.5 Z"/></g>
<g><path style="opacity:1" fill="#679ec7" d="M 55.5,216.5 C 55.631,217.239 55.4643,217.906 55,218.5C 53.7941,215.94 52.2941,215.44 50.5,217C 52.3463,218.78 54.013,220.78 55.5,223C 55.0426,223.414 54.7093,223.914 54.5,224.5C 59.4394,228.303 64.7727,230.97 70.5,232.5C 70.5,230.167 70.5,227.833 70.5,225.5C 69.5,225.5 68.5,225.5 67.5,225.5C 69.155,219.654 69.8217,213.654 69.5,207.5C 69.0675,218.221 71.7342,228.221 77.5,237.5C 76.277,238.614 74.9437,238.781 73.5,238C 61.244,232.873 49.9106,226.206 39.5,218C 32.8509,211.538 28.6842,203.704 27,194.5C 26.1098,191.294 26.4431,188.294 28,185.5C 30.3333,188.833 32.6667,192.167 35,195.5C 42.0359,202.368 48.8693,209.368 55.5,216.5 Z"/></g>
<g><path style="opacity:1" fill="#0b0202" d="M 148.5,196.5 C 152.579,197.089 156.246,198.422 159.5,200.5C 159.5,203.833 159.5,207.167 159.5,210.5C 159.5,213.5 159.5,216.5 159.5,219.5C 159.5,224.167 159.5,228.833 159.5,233.5C 153.605,229.4 149.938,223.734 148.5,216.5C 148.5,209.833 148.5,203.167 148.5,196.5 Z"/></g>
<g><path style="opacity:0.004" fill="#fefffe" d="M 446.5,199.5 C 447.833,200.167 447.833,200.167 446.5,199.5 Z"/></g>
<g><path style="opacity:1" fill="#629dc7" d="M 541.5,156.5 C 540.578,162.188 540.578,167.855 541.5,173.5C 541.167,174.167 540.833,174.833 540.5,175.5C 539.476,174.147 538.143,173.48 536.5,173.5C 536.241,177.24 536.574,180.906 537.5,184.5C 536.91,185.799 535.91,186.632 534.5,187C 535.667,187.5 536.5,188.333 537,189.5C 537.456,192.572 537.456,195.572 537,198.5C 538.079,192.26 539.913,186.26 542.5,180.5C 543.167,180.833 543.833,181.167 544.5,181.5C 545.298,179.922 545.798,178.256 546,176.5C 546.383,177.056 546.883,177.389 547.5,177.5C 543.61,191.374 538.943,205.041 533.5,218.5C 528.95,219.8 524.45,219.8 520,218.5C 515.854,207.238 512.021,195.904 508.5,184.5C 511.272,188.527 513.606,192.86 515.5,197.5C 516.324,199.748 517.324,199.914 518.5,198C 516.204,195.622 514.537,192.789 513.5,189.5C 515.238,185.949 516.572,182.282 517.5,178.5C 516.831,173.823 516.165,169.157 515.5,164.5C 519.066,175.244 522.899,185.91 527,196.5C 532.152,183.186 536.986,169.853 541.5,156.5 Z"/></g>
<g><path style="opacity:1" fill="#5d9bca" d="M 337.5,180.5 C 339.744,182.533 341.411,185.033 342.5,188C 341.751,195.476 341.251,202.976 341,210.5C 340.167,211.333 339.333,212.167 338.5,213C 331.583,212.957 324.583,213.124 317.5,213.5C 312.527,213.416 307.693,212.749 303,211.5C 300.566,212.322 298.066,212.656 295.5,212.5C 292.451,211.114 290.451,208.781 289.5,205.5C 291.138,202.533 293.138,199.867 295.5,197.5C 296.583,197.461 297.583,197.127 298.5,196.5C 298.833,197.167 299.167,197.833 299.5,198.5C 298.533,200.762 297.866,203.095 297.5,205.5C 300.329,205.675 301.996,204.342 302.5,201.5C 303.981,202.48 305.315,203.647 306.5,205C 304.744,205.202 303.078,205.702 301.5,206.5C 306.179,206.993 310.679,207.993 315,209.5C 319.068,209.263 323.234,209.097 327.5,209C 327.043,208.586 326.709,208.086 326.5,207.5C 327.991,206.756 329.491,206.09 331,205.5C 331.887,201.675 332.721,197.842 333.5,194C 332.006,189.675 329.006,186.842 324.5,185.5C 325.171,184.054 326.338,183.388 328,183.5C 329.877,184.253 331.711,185.086 333.5,186C 334.219,188.556 335.886,189.723 338.5,189.5C 338.657,188.127 338.49,186.793 338,185.5C 335.182,183.694 335.016,182.028 337.5,180.5 Z"/></g>
<g><path style="opacity:0.024" fill="#f3c1c4" d="M 162.5,201.5 C 163.496,201.414 164.329,201.748 165,202.5C 165.78,204.387 165.613,206.054 164.5,207.5C 164.747,205.142 164.081,203.142 162.5,201.5 Z"/></g>
<g><path style="opacity:0.004" fill="#fefffe" d="M 206.5,204.5 C 207.833,205.167 207.833,205.167 206.5,204.5 Z"/></g>
<g><path style="opacity:1" fill="#619cc7" d="M 69.5,207.5 C 69.8217,213.654 69.155,219.654 67.5,225.5C 68.5,225.5 69.5,225.5 70.5,225.5C 70.5,227.833 70.5,230.167 70.5,232.5C 64.7727,230.97 59.4394,228.303 54.5,224.5C 54.7093,223.914 55.0426,223.414 55.5,223C 54.013,220.78 52.3463,218.78 50.5,217C 52.2941,215.44 53.7941,215.94 55,218.5C 55.4643,217.906 55.631,217.239 55.5,216.5C 56.8149,217.476 58.1482,218.476 59.5,219.5C 60.4077,218.21 60.241,216.877 59,215.5C 57.5775,203.442 58.9108,191.776 63,180.5C 67.5059,188.868 69.6725,197.868 69.5,207.5 Z"/></g>
<g><path style="opacity:0.294" fill="#585352" d="M 146.5,195.5 C 147.492,195.328 148.158,195.662 148.5,196.5C 148.5,203.167 148.5,209.833 148.5,216.5C 147.833,216.5 147.5,216.167 147.5,215.5C 147.793,208.745 147.46,202.078 146.5,195.5 Z"/></g>
<g><path style="opacity:1" fill="#cc4952" d="M 144.5,174.5 C 142.719,178.76 143.552,182.427 147,185.5C 147.399,185.272 147.565,184.938 147.5,184.5C 148.404,185.209 148.737,186.209 148.5,187.5C 152.099,188.699 155.765,189.699 159.5,190.5C 167.827,192.335 173.494,197.168 176.5,205C 176.332,208.844 174.665,211.844 171.5,214C 167.593,216.121 163.593,217.955 159.5,219.5C 159.5,216.5 159.5,213.5 159.5,210.5C 161.368,209.737 163.035,208.737 164.5,207.5C 165.613,206.054 165.78,204.387 165,202.5C 164.329,201.748 163.496,201.414 162.5,201.5C 161.391,201.443 160.391,201.11 159.5,200.5C 156.246,198.422 152.579,197.089 148.5,196.5C 148.158,195.662 147.492,195.328 146.5,195.5C 132.863,190.905 129.197,182.238 135.5,169.5C 138.663,167.836 141.83,166.17 145,164.5C 145.5,164.833 146,165.167 146.5,165.5C 145.725,168.484 145.059,171.484 144.5,174.5 Z"/></g>
<g><path style="opacity:1" fill="#6ca1c7" d="M 310.5,157.5 C 306.567,161.29 306.567,165.124 310.5,169C 319.692,171.21 328.692,173.877 337.5,177C 346.384,183.633 349.551,192.466 347,203.5C 343.118,213.2 335.952,218.7 325.5,220C 319.775,220.717 314.109,220.384 308.5,219C 303.557,217.862 299.224,215.695 295.5,212.5C 298.066,212.656 300.566,212.322 303,211.5C 307.693,212.749 312.527,213.416 317.5,213.5C 324.583,213.124 331.583,212.957 338.5,213C 339.333,212.167 340.167,211.333 341,210.5C 341.251,202.976 341.751,195.476 342.5,188C 341.411,185.033 339.744,182.533 337.5,180.5C 330.586,178.228 323.419,176.562 316,175.5C 315.586,175.957 315.086,176.291 314.5,176.5C 313.491,173.663 311.491,172.33 308.5,172.5C 308.759,170.011 307.759,168.344 305.5,167.5C 305.335,164.482 305.502,161.482 306,158.5C 307.356,157.62 308.856,157.286 310.5,157.5 Z"/></g>
<g><path style="opacity:1" fill="#72a4c8" d="M 440.5,156.5 C 451.345,155.716 462.345,155.049 473.5,154.5C 473.5,151.167 473.5,147.833 473.5,144.5C 458.833,144.5 444.167,144.5 429.5,144.5C 428.5,144.5 427.5,144.5 426.5,144.5C 426.333,167.836 426.5,191.169 427,214.5C 427.192,212.423 427.692,210.423 428.5,208.5C 429.415,209.328 430.081,210.328 430.5,211.5C 429.319,213.198 429.319,214.865 430.5,216.5C 431.386,215.675 431.719,214.675 431.5,213.5C 442.5,213.5 453.5,213.5 464.5,213.5C 464.5,214.5 464.5,215.5 464.5,216.5C 466.833,216.5 469.167,216.5 471.5,216.5C 472.179,214.332 473.179,212.332 474.5,210.5C 474.081,209.328 473.415,208.328 472.5,207.5C 461.674,206.833 451.008,206.167 440.5,205.5C 452.167,205.5 463.833,205.5 475.5,205.5C 475.5,210.167 475.5,214.833 475.5,219.5C 458.325,219.83 441.325,219.497 424.5,218.5C 424.5,193.5 424.5,168.5 424.5,143.5C 440.992,142.503 457.658,142.17 474.5,142.5C 474.5,147.167 474.5,151.833 474.5,156.5C 463.167,156.5 451.833,156.5 440.5,156.5 Z"/></g>
<g><path style="opacity:0.004" fill="#fefffe" d="M 410.5,219.5 C 411.833,220.167 411.833,220.167 410.5,219.5 Z"/></g>
<g><path style="opacity:0.998" fill="#81abc8" d="M 240.5,233.5 C 240.5,232.5 240.5,231.5 240.5,230.5C 244.36,229.626 248.026,228.293 251.5,226.5C 251.105,223.477 252.105,222.477 254.5,223.5C 257.839,221.158 261.173,218.825 264.5,216.5C 265.309,214.929 265.643,213.262 265.5,211.5C 267.167,211.5 268.833,211.5 270.5,211.5C 273.225,205.202 275.558,198.702 277.5,192C 277.026,190.392 276.359,190.226 275.5,191.5C 273.706,194.794 271.706,197.961 269.5,201C 268.207,201.49 266.873,201.657 265.5,201.5C 268.123,198.039 270.956,194.706 274,191.5C 275.559,189.783 276.392,187.783 276.5,185.5C 277.5,185.5 278.5,185.5 279.5,185.5C 279.561,201.602 272.894,214.102 259.5,223C 253.4,227.047 247.067,230.547 240.5,233.5 Z"/></g>
<g><path style="opacity:0.004" fill="#fefffe" d="M 449.5,223.5 C 450.833,224.167 450.833,224.167 449.5,223.5 Z"/></g>
<g><path style="opacity:1" fill="#5f9cc8" d="M 265.5,201.5 C 266.873,201.657 268.207,201.49 269.5,201C 271.706,197.961 273.706,194.794 275.5,191.5C 276.359,190.226 277.026,190.392 277.5,192C 275.558,198.702 273.225,205.202 270.5,211.5C 268.833,211.5 267.167,211.5 265.5,211.5C 265.643,213.262 265.309,214.929 264.5,216.5C 261.173,218.825 257.839,221.158 254.5,223.5C 252.105,222.477 251.105,223.477 251.5,226.5C 248.026,228.293 244.36,229.626 240.5,230.5C 240.5,231.5 240.5,232.5 240.5,233.5C 237.766,235.442 234.766,236.942 231.5,238C 230.365,238.749 229.365,238.583 228.5,237.5C 231.756,232.987 233.922,227.987 235,222.5C 235.69,208.951 237.69,195.617 241,182.5C 242.185,180.441 243.352,180.274 244.5,182C 247.359,194.064 248.193,206.23 247,218.5C 252.737,212.259 258.903,206.592 265.5,201.5 Z"/></g>
<g><path style="opacity:0.004" fill="#fefffe" d="M 608.5,226.5 C 609.833,227.167 609.833,227.167 608.5,226.5 Z"/></g>
<g><path style="opacity:1" fill="#ba4e55" d="M 147.5,215.5 C 147.5,216.167 147.833,216.5 148.5,216.5C 149.938,223.734 153.605,229.4 159.5,233.5C 162.995,236.825 166.661,239.992 170.5,243C 170.333,243.5 170.167,244 170,244.5C 166.591,242.24 163.091,240.24 159.5,238.5C 155.852,235.34 151.852,232.673 147.5,230.5C 142.978,227.759 141.478,223.759 143,218.5C 144.271,217.117 145.771,216.117 147.5,215.5 Z"/></g>
<g><path style="opacity:1" fill="#2c271d" d="M 147.5,230.5 C 151.852,232.673 155.852,235.34 159.5,238.5C 159.5,246.5 159.5,254.5 159.5,262.5C 155.5,262.5 151.5,262.5 147.5,262.5C 147.5,251.833 147.5,241.167 147.5,230.5 Z"/></g>
<g><path style="opacity:0.004" fill="#fefffe" d="M 293.5,240.5 C 294.833,241.167 294.833,241.167 293.5,240.5 Z"/></g>
<g><path style="opacity:1" fill="#659ec8" d="M 73.5,207.5 C 78.1396,210.641 81.973,214.641 85,219.5C 89,228.833 93,238.167 97,247.5C 99.0961,252.027 101.929,256.027 105.5,259.5C 79.3777,262.347 58.5444,253.347 43,232.5C 41.3554,229.378 39.8554,226.212 38.5,223C 39.5,222.333 40.5,222.333 41.5,223C 45.8036,227.149 50.4703,230.816 55.5,234C 65.9151,238.213 75.9151,242.88 85.5,248C 83.6227,245.749 82.1227,243.249 81,240.5C 79.3703,229.203 76.8703,218.203 73.5,207.5 Z"/></g>
<g><path style="opacity:1" fill="#6fa2c8" d="M 115.5,276.5 C 121.085,273.833 127.085,272.333 133.5,272C 133.93,271.08 134.264,270.247 134.5,269.5C 143.694,271.659 144.527,270.326 137,265.5C 132.93,267.532 130.43,266.365 129.5,262C 124.815,260.523 121.481,262.023 119.5,266.5C 115.782,266.981 112.782,268.647 110.5,271.5C 108.604,272.466 106.604,272.799 104.5,272.5C 104.5,271.5 104.5,270.5 104.5,269.5C 106.527,269.662 108.527,269.495 110.5,269C 110.957,268.586 111.291,268.086 111.5,267.5C 100.612,266.205 89.7784,264.872 79,263.5C 78.6667,263.833 78.3333,264.167 78,264.5C 76.6534,262.534 75.1534,262.201 73.5,263.5C 70.883,262.214 68.5496,260.547 66.5,258.5C 83.484,263.151 100.817,265.318 118.5,265C 110.682,260.014 104.349,253.514 99.5,245.5C 97.9239,243.021 96.9239,240.354 96.5,237.5C 99.7449,237.88 102.745,239.047 105.5,241C 113.167,247.333 120.833,253.667 128.5,260C 134.513,263.391 140.846,265.891 147.5,267.5C 147.5,268.5 147.5,269.5 147.5,270.5C 139.769,271.902 132.102,273.736 124.5,276C 121.518,276.498 118.518,276.665 115.5,276.5 Z"/></g>
<g><path style="opacity:0.004" fill="#fefffe" d="M 317.5,251.5 C 318.833,252.167 318.833,252.167 317.5,251.5 Z"/></g>
<g><path style="opacity:0.004" fill="#fefffe" d="M 557.5,251.5 C 558.833,252.167 558.833,252.167 557.5,251.5 Z"/></g>
<g><path style="opacity:0.004" fill="#fefffe" d="M 362.5,253.5 C 363.833,254.167 363.833,254.167 362.5,253.5 Z"/></g>
<g><path style="opacity:1" fill="#669fc8" d="M 230.5,207.5 C 231.497,207.47 232.164,207.97 232.5,209C 228.992,219.165 226.492,229.665 225,240.5C 223.939,243.562 222.106,246.062 219.5,248C 229.085,242.88 239.085,238.213 249.5,234C 255.522,230.322 261.189,226.155 266.5,221.5C 266.47,224.465 265.637,227.465 264,230.5C 248.537,252.308 227.37,261.808 200.5,259C 208.956,248.083 215.122,235.916 219,222.5C 222.358,217.11 226.191,212.11 230.5,207.5 Z"/></g>
<g><path style="opacity:0.004" fill="#fefffe" d="M 251.5,259.5 C 252.833,260.167 252.833,260.167 251.5,259.5 Z"/></g>
<g><path style="opacity:0.004" fill="#fefffe" d="M 383.5,261.5 C 384.833,262.167 384.833,262.167 383.5,261.5 Z"/></g>
<g><path style="opacity:1" fill="#669ec7" d="M 237.5,258.5 C 237.489,260.017 236.823,261.184 235.5,262C 235.728,262.399 236.062,262.565 236.5,262.5C 236.19,264.144 235.19,265.144 233.5,265.5C 230.177,265.52 227.511,267.187 225.5,270.5C 215.673,274.164 205.507,276.164 195,276.5C 182.619,275.761 170.785,273.595 159.5,270C 158.549,269.282 158.383,268.449 159,267.5C 165.098,265.703 170.931,263.203 176.5,260C 183.833,254 191.167,248 198.5,242C 201.705,239.898 205.038,238.065 208.5,236.5C 209.372,238.466 209.205,240.466 208,242.5C 203.93,249.24 199.096,255.407 193.5,261C 191.004,262.08 188.67,263.414 186.5,265C 203.793,265.004 220.793,262.837 237.5,258.5 Z"/></g>
<g><path style="opacity:1" fill="#5f9cc8" d="M 115.5,276.5 C 100.638,277.701 86.9712,274.367 74.5,266.5C 74.4431,265.391 74.1098,264.391 73.5,263.5C 75.1534,262.201 76.6534,262.534 78,264.5C 78.3333,264.167 78.6667,263.833 79,263.5C 89.7784,264.872 100.612,266.205 111.5,267.5C 111.291,268.086 110.957,268.586 110.5,269C 108.527,269.495 106.527,269.662 104.5,269.5C 104.5,270.5 104.5,271.5 104.5,272.5C 106.604,272.799 108.604,272.466 110.5,271.5C 112.782,268.647 115.782,266.981 119.5,266.5C 121.481,262.023 124.815,260.523 129.5,262C 130.43,266.365 132.93,267.532 137,265.5C 144.527,270.326 143.694,271.659 134.5,269.5C 134.264,270.247 133.93,271.08 133.5,272C 127.085,272.333 121.085,273.833 115.5,276.5 Z"/></g>
<g><path style="opacity:0.604" fill="#3c4248" d="M 66.5,258.5 C 68.5496,260.547 70.883,262.214 73.5,263.5C 74.1098,264.391 74.4431,265.391 74.5,266.5C 74.2148,268.288 74.5481,269.955 75.5,271.5C 84.6256,276.729 93.959,281.396 103.5,285.5C 102.791,286.404 101.791,286.737 100.5,286.5C 91.6462,283.076 82.9795,279.076 74.5,274.5C 72.2417,277.357 70.2417,280.357 68.5,283.5C 68.7373,282.209 68.404,281.209 67.5,280.5C 69.9765,276.536 71.6431,272.202 72.5,267.5C 68.7189,262.914 64.0522,259.248 58.5,256.5C 56.6679,260.88 55.0012,265.213 53.5,269.5C 53.6716,268.508 53.3382,267.842 52.5,267.5C 53.3992,262.233 55.0659,257.233 57.5,252.5C 60.7376,254.275 63.7376,256.275 66.5,258.5 Z"/></g>
<g><path style="opacity:0.004" fill="#fefffe" d="M 524.5,275.5 C 525.833,276.167 525.833,276.167 524.5,275.5 Z"/></g>
<g><path style="opacity:0.004" fill="#fefffe" d="M 572.5,276.5 C 573.833,277.167 573.833,277.167 572.5,276.5 Z"/></g>
<g><path style="opacity:0.004" fill="#fefffe" d="M 518.5,278.5 C 519.833,279.167 519.833,279.167 518.5,278.5 Z"/></g>
<g><path style="opacity:0.004" fill="#fefffe" d="M 5.5,280.5 C 6.83333,281.167 6.83333,281.167 5.5,280.5 Z"/></g>
<g><path style="opacity:0.379" fill="#202021" d="M 52.5,267.5 C 53.3382,267.842 53.6716,268.508 53.5,269.5C 52.6789,272.554 52.6789,275.554 53.5,278.5C 57.465,280.635 61.2984,282.968 65,285.5C 65.8466,283.807 66.6799,282.14 67.5,280.5C 68.404,281.209 68.7373,282.209 68.5,283.5C 67.1736,286.001 66.6736,288.668 67,291.5C 68.6147,292.386 70.1147,293.386 71.5,294.5C 71.6716,295.492 71.3382,296.158 70.5,296.5C 68.236,295.419 66.0693,294.085 64,292.5C 64.0464,290.687 63.8797,289.021 63.5,287.5C 57.807,285.176 53.1403,281.676 49.5,277C 50.2362,273.63 51.2362,270.464 52.5,267.5 Z"/></g>
<g><path style="opacity:1" fill="#689fc7" d="M 120.5,291.5 C 119.209,291.737 118.209,291.404 117.5,290.5C 118.239,290.631 118.906,290.464 119.5,290C 118.207,289.51 116.873,289.343 115.5,289.5C 115.158,288.662 114.492,288.328 113.5,288.5C 112.5,287.167 111.5,287.167 110.5,288.5C 109.833,288.5 109.5,288.167 109.5,287.5C 109.5,286.833 109.167,286.5 108.5,286.5C 106.052,284.755 103.719,282.755 101.5,280.5C 101.808,279.692 102.308,279.025 103,278.5C 119.586,283.686 135.42,281.852 150.5,273C 149.378,269.055 150.378,268.555 153.5,271.5C 154.768,270.572 156.101,270.405 157.5,271C 156.289,271.893 156.289,272.726 157.5,273.5C 171.838,280.805 186.838,282.472 202.5,278.5C 203.932,278.733 204.432,279.4 204,280.5C 195.407,287.809 185.407,291.142 174,290.5C 166.755,290.855 160.088,289.189 154,285.5C 153.667,282.5 153.333,279.5 153,276.5C 152.793,280.089 152.293,283.589 151.5,287C 141.33,290.883 130.997,292.383 120.5,291.5 Z"/></g>
<g><path style="opacity:0.004" fill="#fefffe" d="M 263.5,283.5 C 264.833,284.167 264.833,284.167 263.5,283.5 Z"/></g>
<g><path style="opacity:0.004" fill="#fefffe" d="M 392.5,284.5 C 393.833,285.167 393.833,285.167 392.5,284.5 Z"/></g>
<g><path style="opacity:0.766" fill="#1b1c1c" d="M 77.5,281.5 C 81.007,285.161 85.007,288.327 89.5,291C 94.6361,292.596 99.4694,294.763 104,297.5C 105.729,295.069 107.229,295.403 108.5,298.5C 111.326,299.58 114.159,300.58 117,301.5C 117.667,303.167 117.667,304.833 117,306.5C 116.275,307.059 115.442,307.392 114.5,307.5C 108.841,305.612 103.174,303.945 97.5,302.5C 97.9111,299.724 97.0777,299.057 95,300.5C 91.1219,298.988 87.2885,297.488 83.5,296C 82.7734,294.601 82.2734,293.101 82,291.5C 81.3946,293.481 80.3946,293.815 79,292.5C 79.1484,291.175 78.9817,290.008 78.5,289C 76.9562,289.487 75.2895,289.987 73.5,290.5C 74.3337,287.316 75.6671,284.316 77.5,281.5 Z"/></g>
<g><path style="opacity:0.004" fill="#fefffe" d="M 47.5,294.5 C 48.8333,295.167 48.8333,295.167 47.5,294.5 Z"/></g>
<g><path style="opacity:0.471" fill="#595f63" d="M 222.5,279.5 C 222.842,280.338 223.508,280.672 224.5,280.5C 216.73,285.043 208.397,288.543 199.5,291C 186.988,293.93 174.322,295.93 161.5,297C 159.751,298.292 157.918,299.458 156,300.5C 154.082,299.458 152.249,298.292 150.5,297C 132.985,296.95 116.318,293.45 100.5,286.5C 101.791,286.737 102.791,286.404 103.5,285.5C 105.042,286.301 106.708,286.634 108.5,286.5C 109.167,286.5 109.5,286.833 109.5,287.5C 109.5,288.167 109.833,288.5 110.5,288.5C 111.5,288.5 112.5,288.5 113.5,288.5C 113.842,289.338 114.508,289.672 115.5,289.5C 115.842,290.338 116.508,290.672 117.5,290.5C 118.209,291.404 119.209,291.737 120.5,291.5C 130.7,293.701 141.033,294.867 151.5,295C 152.966,295.635 154.3,296.469 155.5,297.5C 158.287,295.773 161.287,294.606 164.5,294C 184.898,293.14 204.231,288.306 222.5,279.5 Z"/></g>
<g><path style="opacity:0.004" fill="#fefffe" d="M 338.5,296.5 C 339.833,297.167 339.833,297.167 338.5,296.5 Z"/></g>
<g><path style="opacity:0.416" fill="#212121" d="M 219.5,290.5 C 224.709,289.705 226.709,291.705 225.5,296.5C 223.833,297.833 222.167,297.833 220.5,296.5C 220.264,297.247 219.93,298.08 219.5,299C 215.948,300.795 212.282,302.295 208.5,303.5C 201.853,300.226 201.853,296.892 208.5,293.5C 209.478,293.977 210.311,294.643 211,295.5C 214.24,294.406 217.073,292.739 219.5,290.5 Z M 208.5,296.5 C 212.123,297.411 212.29,298.745 209,300.5C 207.232,299.318 207.065,297.985 208.5,296.5 Z"/></g>
<g><path style="opacity:0.612" fill="#353638" d="M 211.5,311.5 C 211.5,310.833 211.5,310.167 211.5,309.5C 218.107,306.789 224.774,303.956 231.5,301C 234.002,299.663 236.002,297.829 237.5,295.5C 233.839,290.326 230.339,284.993 227,279.5C 226.329,280.252 225.496,280.586 224.5,280.5C 223.508,280.672 222.842,280.338 222.5,279.5C 223.172,278.733 224.005,278.066 225,277.5C 225.497,275.19 225.663,272.857 225.5,270.5C 227.511,267.187 230.177,265.52 233.5,265.5C 228.743,268.492 227.243,272.825 229,278.5C 232.053,281.887 234.72,285.553 237,289.5C 237.718,290.451 238.551,290.617 239.5,290C 242.883,286.953 245.883,283.62 248.5,280C 245.667,273.5 242.833,267 240,260.5C 239.184,261.823 238.017,262.489 236.5,262.5C 236.062,262.565 235.728,262.399 235.5,262C 236.823,261.184 237.489,260.017 237.5,258.5C 239.017,258.489 240.184,257.823 241,256.5C 244.758,264.353 248.258,272.353 251.5,280.5C 248.542,285.126 244.876,289.126 240.5,292.5C 239.833,294.833 239.167,297.167 238.5,299.5C 230.047,304.897 221.047,308.897 211.5,311.5 Z"/></g>
<g><path style="opacity:0.677" fill="#2a2a29" d="M 154.5,304.5 C 159.159,305.524 161.159,308.524 160.5,313.5C 152.332,314.678 150.332,311.678 154.5,304.5 Z"/></g>
<g><path style="opacity:0.254" fill="#232323" d="M 131.5,305.5 C 131.369,306.376 131.702,307.043 132.5,307.5C 133.716,306.998 134.883,306.665 136,306.5C 137.555,311.593 138.388,311.593 138.5,306.5C 138.5,305.5 138.5,304.5 138.5,303.5C 140.881,304.42 143.214,304.42 145.5,303.5C 146.695,305.297 148.362,306.297 150.5,306.5C 150.5,308.833 150.5,311.167 150.5,313.5C 149.5,313.5 148.5,313.5 147.5,313.5C 147.167,308.167 146.833,308.167 146.5,313.5C 138.273,312.81 130.273,311.31 122.5,309C 123.711,308.107 123.711,307.274 122.5,306.5C 121.075,309.876 119.741,310.043 118.5,307C 119.287,304.901 119.62,302.734 119.5,300.5C 120.5,300.5 121.5,300.5 122.5,300.5C 122.351,301.552 122.517,302.552 123,303.5C 124.241,301.579 125.741,301.246 127.5,302.5C 126.674,303.451 126.508,304.451 127,305.5C 128.616,304.199 130.116,304.199 131.5,305.5 Z"/></g>
<g><path style="opacity:0.468" fill="#555555" d="M 138.5,306.5 C 138.388,311.593 137.555,311.593 136,306.5C 134.883,306.665 133.716,306.998 132.5,307.5C 131.702,307.043 131.369,306.376 131.5,305.5C 134.003,304.235 136.337,304.568 138.5,306.5 Z"/></g>
<g><path style="opacity:0.537" fill="#222222" d="M 189.5,299.5 C 193.108,302.038 196.775,302.038 200.5,299.5C 203.827,301.291 204.16,303.457 201.5,306C 196.069,307.219 190.736,308.719 185.5,310.5C 183.998,306.626 183.331,306.959 183.5,311.5C 181.089,311.863 179.589,310.863 179,308.5C 178.671,312.04 176.838,313.206 173.5,312C 172.809,310.933 172.309,309.766 172,308.5C 171.506,310.134 171.34,311.801 171.5,313.5C 170.5,313.5 169.5,313.5 168.5,313.5C 168.762,312.022 168.429,310.689 167.5,309.5C 165.889,310.32 165.222,311.654 165.5,313.5C 164.5,313.5 163.5,313.5 162.5,313.5C 162.5,310.5 162.5,307.5 162.5,304.5C 165.157,304.162 167.49,304.829 169.5,306.5C 172.833,305.833 176.167,305.167 179.5,304.5C 180.086,304.709 180.586,305.043 181,305.5C 182.353,304.315 183.52,302.981 184.5,301.5C 187.193,303.996 188.859,303.33 189.5,299.5 Z"/></g>
<g><path style="opacity:0.004" fill="#fefffe" d="M 599.5,309.5 C 600.833,310.167 600.833,310.167 599.5,309.5 Z"/></g>
<g><path style="opacity:0.561" fill="#494949" d="M 71.5,294.5 C 96.5913,308.43 123.591,316.263 152.5,318C 154.286,318.785 155.786,319.951 157,321.5C 158.8,319.683 160.966,318.516 163.5,318C 179.876,317.07 195.876,314.236 211.5,309.5C 211.5,310.167 211.5,310.833 211.5,311.5C 196.016,316.881 180.016,319.714 163.5,320C 159.409,324.494 155.409,324.494 151.5,320C 122.372,318.809 95.3723,310.975 70.5,296.5C 71.3382,296.158 71.6716,295.492 71.5,294.5 Z"/></g>
<g><path style="opacity:0.004" fill="#fefffe" d="M 518.5,319.5 C 519.833,320.167 519.833,320.167 518.5,319.5 Z"/></g>
<g><path style="opacity:0.004" fill="#fefffe" d="M 656.5,323.5 C 657.833,324.167 657.833,324.167 656.5,323.5 Z"/></g>
<g><path style="opacity:0.004" fill="#fefffe" d="M 602.5,330.5 C 603.833,331.167 603.833,331.167 602.5,330.5 Z"/></g>
<g><path style="opacity:0.004" fill="#fefffe" d="M 128.5,332.5 C 129.833,333.167 129.833,333.167 128.5,332.5 Z"/></g>
<g><path style="opacity:0.004" fill="#fefffe" d="M 434.5,342.5 C 435.833,343.167 435.833,343.167 434.5,342.5 Z"/></g>
<g><path style="opacity:0.004" fill="#fefffe" d="M 164.5,356.5 C 165.833,357.167 165.833,357.167 164.5,356.5 Z"/></g>
<g><path style="opacity:0.004" fill="#fefffe" d="M 41.5,357.5 C 42.8333,358.167 42.8333,358.167 41.5,357.5 Z"/></g>
<g><path style="opacity:0.004" fill="#fefffe" d="M 191.5,359.5 C 192.833,360.167 192.833,360.167 191.5,359.5 Z"/></g>
<g><path style="opacity:0.004" fill="#fefffe" d="M 296.5,360.5 C 297.833,361.167 297.833,361.167 296.5,360.5 Z"/></g>
</svg>
